<svg width="79" height="80" viewBox="0 0 79 80" fill="none" xmlns="http://www.w3.org/2000/svg">
<path fill-rule="evenodd" clip-rule="evenodd" d="M23.7546 0.456219C20.4846 1.46069 17.8121 5.39801 17.8718 9.12318C17.8973 10.7112 18.9445 13.6338 19.4881 13.6338C19.6539 13.6338 19.8747 13.9029 19.9792 14.232C20.1096 14.643 19.7761 15.3488 18.914 16.4873C17.1947 18.7579 16.0253 21.0571 14.9066 24.366C12.2235 32.3035 12.485 36.3454 15.9199 40.018C17.7216 41.9445 17.9962 43.1129 16.9935 44.5855C16.587 45.1822 16.1678 45.6715 16.062 45.6727C15.956 45.674 15.3395 44.8294 14.6917 43.7963C12.5675 40.4071 9.6517 38.8682 6.59226 39.5209C4.90438 39.8808 2.59946 41.9277 1.53765 44.0094C0.505399 46.033 -0.183809 50.0938 0.0432312 52.8151C0.416448 57.2925 2.25454 62.0769 4.64437 64.7926C6.29399 66.6671 7.54551 67.2227 9.52605 66.9598C10.9723 66.7679 11.092 66.8168 13.6398 68.6397C16.9453 71.0048 23.2225 74.2173 26.6735 75.3105C30.2561 76.4456 32.296 76.8136 35.1381 76.8382C37.475 76.8584 37.5699 76.8895 38.7663 78.028C40.5043 79.6814 42.4357 80.1138 45.0746 79.44C48.5742 78.5469 50.3432 77.2227 53.1937 73.3634C53.7616 72.595 54.5833 71.8407 55.0203 71.687C57.0132 70.9858 60.1315 72.7189 61.4949 75.2856C62.8727 77.879 65.3683 78.6346 70.0615 77.879C76.8543 76.7859 79.1537 74.6827 77.3728 71.1915C76.5007 69.4818 75.68 69.0058 73.6018 69.0058C72.3845 69.0058 71.6334 68.8375 71.1734 68.4614C70.5597 67.9603 69.6758 65.309 66.937 55.7576C66.6876 54.8872 66.4833 53.4018 66.4833 52.4571C66.4833 50.4416 67.0804 49.3957 69.552 47.0832C71.7509 45.0263 73.2279 41.9756 73.8792 38.1462C74.3662 35.283 74.361 35.1038 73.6948 31.9595C73.3175 30.1782 72.9238 28.4063 72.8199 28.0212C72.6843 27.5188 72.7648 27.3213 73.1054 27.3213C73.9324 27.3213 76.2989 24.7151 77.2148 22.7951C78.4492 20.2078 78.6427 16.711 77.691 14.1872C75.3195 7.89877 66.9392 6.0068 62.2463 10.7004C61.5096 11.4376 60.8163 12.3991 60.7065 12.8371C60.5964 13.2755 60.3787 13.6338 60.2223 13.6338C60.0661 13.6338 58.8566 13.0935 57.5348 12.4334C52.1732 9.75529 48.0738 8.8656 40.9509 8.8345L35.7902 8.8121L35.4391 7.14192C34.3126 1.78079 29.1184 -1.19094 23.7546 0.456219ZM49.533 13.4562C51.4007 13.9353 53.942 14.9071 55.8942 15.8882L59.1455 17.5223L59.4886 19.2332C59.9831 21.6995 60.9003 23.2474 63.0413 25.2299C64.3283 26.422 65.5163 27.1913 66.7825 27.6529C68.4594 28.2648 68.6821 28.453 69.1029 29.6142C70.6645 33.9245 70.5672 37.9256 68.8184 41.3198C66.408 45.9972 62.5651 47.6319 52.0211 48.4662C43.7407 49.1214 32.5361 47.4418 26.6975 44.6708C22.1249 42.5007 17.6211 37.315 17.1795 33.7115C16.7814 30.465 18.817 23.4869 21.214 19.8806C24.93 14.2899 30.526 12.276 41.6022 12.5422C45.493 12.6359 47.0228 12.8123 49.533 13.4562ZM31.6485 19.7428C26.2166 22.461 22.6082 28.4735 24.711 31.3025C26.7603 34.0596 35.6522 30.6728 37.9229 26.2705C38.8948 24.3866 39.012 22.1067 38.2174 20.5485C37.8541 19.8367 37.2868 19.1094 36.9562 18.9324C35.7806 18.3031 33.9745 18.579 31.6485 19.7428ZM36.4213 20.8645C37.7322 22.6283 36.6256 27.3197 34.8385 27.5754C34.2087 27.6656 34.1553 27.5577 34.2212 26.3311C34.2691 25.4408 34.4992 24.8171 34.9042 24.4802C35.4351 24.0388 35.4652 23.8633 35.1349 23.1379C34.8351 22.48 34.5739 22.3241 33.9021 22.4013C33.2446 22.4772 32.7644 22.9404 31.8052 24.4242C29.8197 27.4964 28.8889 26.6282 30.7254 23.4172C32.6786 20.0032 35.0059 18.9601 36.4213 20.8645ZM50.1551 22.9229C47.4626 24.5863 46.5526 27.8156 47.6327 31.873C48.549 35.3141 51.2707 39.151 53.1175 39.6039C54.0894 39.8425 55.7919 38.7718 56.5741 37.4304C57.3227 36.146 57.8362 32.6161 57.6088 30.3195C57.0798 24.9832 55.4065 22.3428 52.5545 22.3453C51.6716 22.3459 50.7167 22.5758 50.1551 22.9229ZM54.3416 24.2693C54.8137 24.776 54.9711 25.3522 54.9574 26.5246C54.9344 28.4835 53.7715 31.7859 53.0562 31.9237C52.613 32.0089 52.5511 31.7794 52.6376 30.3723C52.6936 29.4643 52.9178 28.3301 53.1358 27.8526C53.4869 27.0839 53.4586 26.91 52.8926 26.3436C52.0675 25.5183 51.2402 25.913 50.1395 27.6572C49.3035 28.9818 48.7555 29.0201 48.7555 27.754C48.7555 25.8592 50.8813 23.5883 52.655 23.5883C53.3374 23.5883 53.9305 23.8279 54.3416 24.2693ZM37.6284 31.5386C36.769 32.1402 36.7376 33.266 37.559 34.0095C38.3897 34.7617 38.3434 35.5863 37.4175 36.5121C36.4928 37.4373 35.3645 37.4939 34.6044 36.6536C34.2949 36.3115 33.9232 36.0315 33.7786 36.0315C33.271 36.0315 33.5223 37.4768 34.1465 38.1465C35.0199 39.0841 36.1084 39.291 37.2287 38.732C38.1474 38.2734 38.1984 38.2887 39.2335 39.3239C40.5186 40.6093 41.9253 40.763 42.6702 39.6994C43.2764 38.834 42.8453 38.3322 41.9206 38.8271C40.8672 39.3911 40.0471 38.4797 40.0471 36.7451C40.0471 35.4762 40.1258 35.3446 41.1356 34.9228C42.0189 34.5536 42.2242 34.3003 42.2242 33.5805C42.2242 33.0927 41.934 32.3247 41.5795 31.8739C41.0657 31.2207 40.6694 31.0542 39.6272 31.0542C38.9079 31.0542 38.0084 31.2723 37.6284 31.5386ZM35.2348 40.0621C34.9178 40.5748 35.8923 41.9022 36.7423 42.1156C37.1441 42.2164 37.9471 42.2537 38.5269 42.1983C39.4167 42.1131 39.5806 41.9765 39.5806 41.3198C39.5806 40.6351 39.4129 40.5182 38.181 40.3415C37.4113 40.2314 36.4823 40.0441 36.1168 39.9256C35.7308 39.8005 35.361 39.8577 35.2348 40.0621ZM10.1534 46.1823C11.199 46.9149 11.7448 48.4805 11.7448 50.7483C11.7448 54.3105 10.4012 57.1848 8.73607 57.1848C7.17945 57.1848 5.8085 54.8561 5.59328 51.8464C5.47012 50.1255 5.56529 49.5199 6.14906 48.3141C6.78508 47.0001 8.26768 45.6793 9.1096 45.6762C9.28563 45.6755 9.75526 45.9033 10.1534 46.1823ZM25.9327 49.0735C28.877 50.0431 34.9477 51.6178 38.0255 52.2104C39.0519 52.4079 42.4108 52.6792 45.4898 52.8132C49.3421 52.9809 51.4277 53.2043 52.1766 53.5293C54.5276 54.5494 56.7834 57.9504 57.4536 61.4855C57.8909 63.7921 57.3342 66.0854 56.0848 67.1222C55.6538 67.4803 55.5978 67.3456 55.5978 65.9485C55.5978 60.4863 52.6876 56.7369 48.4445 56.7322C43.128 56.7263 37.7602 63.5162 36.467 71.8833C36.253 73.2679 36.2932 73.2623 31.4258 72.5792C26.583 71.8995 24.3294 71.2565 23.2467 70.2448C22.3249 69.3838 22.3193 69.3573 22.3193 65.9159C22.3193 63.6973 22.1675 62.0937 21.8969 61.4522C21.6646 60.9016 20.6174 59.6626 19.5702 58.6985C17.1195 56.4426 16.8682 55.7878 17.5381 53.3996C18.4111 50.2879 20.3845 48.2152 22.5115 48.1757C22.8735 48.1692 24.413 48.5729 25.9327 49.0735ZM48.897 62.0442C49.6689 62.3403 50.3106 63.8478 50.3106 65.364C50.3106 67.0961 49.2034 69.2432 47.8312 70.1724C46.5666 71.0288 45.6348 71.0596 44.6691 70.2775C44.0617 69.7857 43.9357 69.3962 43.9404 68.0222C43.9472 66.0518 44.6868 64.3857 46.212 62.9037C47.2807 61.8659 47.9086 61.665 48.897 62.0442Z" fill="black"/>
<path fill-rule="evenodd" clip-rule="evenodd" d="M49.533 13.4562C51.4007 13.9353 53.942 14.9071 55.8942 15.8882L59.1455 17.5223L59.4886 19.2332C59.9831 21.6995 60.9003 23.2474 63.0413 25.2299C64.3283 26.422 65.5163 27.1913 66.7825 27.6529C68.4594 28.2648 68.6821 28.453 69.1029 29.6142C70.6645 33.9245 70.5672 37.9256 68.8184 41.3198C66.408 45.9972 62.5651 47.6319 52.0211 48.4662C43.7407 49.1214 32.5361 47.4418 26.6975 44.6708C22.1249 42.5007 17.6211 37.315 17.1795 33.7115C16.7814 30.465 18.817 23.4869 21.214 19.8806C24.93 14.2899 30.526 12.276 41.6022 12.5422C45.493 12.6359 47.0228 12.8123 49.533 13.4562ZM24.711 31.3025C22.6082 28.4735 26.2166 22.461 31.6485 19.7428C33.9745 18.579 35.7806 18.3031 36.9562 18.9324C37.2868 19.1094 37.8541 19.8367 38.2174 20.5485C39.012 22.1067 38.8948 24.3866 37.9229 26.2705C35.6522 30.6728 26.7603 34.0596 24.711 31.3025ZM47.6327 31.873C46.5526 27.8156 47.4626 24.5863 50.1551 22.9229C50.7167 22.5758 51.6716 22.3459 52.5545 22.3453C55.4065 22.3428 57.0798 24.9832 57.6088 30.3195C57.8362 32.6161 57.3227 36.146 56.5741 37.4304C55.7919 38.7718 54.0894 39.8425 53.1175 39.6039C51.2707 39.151 48.549 35.3141 47.6327 31.873ZM37.559 34.0095C36.7376 33.266 36.769 32.1402 37.6284 31.5386C38.0084 31.2723 38.9079 31.0542 39.6272 31.0542C40.6694 31.0542 41.0657 31.2207 41.5795 31.8739C41.934 32.3247 42.2242 33.0927 42.2242 33.5805C42.2242 34.3003 42.0189 34.5536 41.1356 34.9228C40.1258 35.3446 40.0471 35.4762 40.0471 36.7451C40.0471 38.4797 40.8672 39.3911 41.9206 38.8271C42.8453 38.3322 43.2764 38.834 42.6702 39.6994C41.9253 40.763 40.5186 40.6093 39.2335 39.3239C38.1984 38.2887 38.1474 38.2734 37.2287 38.732C36.1084 39.291 35.0199 39.0841 34.1465 38.1465C33.5223 37.4768 33.271 36.0315 33.7786 36.0315C33.9232 36.0315 34.2949 36.3115 34.6044 36.6536C35.3645 37.4939 36.4928 37.4373 37.4175 36.5121C38.3434 35.5863 38.3897 34.7617 37.559 34.0095ZM36.7423 42.1156C35.8923 41.9022 34.9178 40.5748 35.2348 40.0621C35.361 39.8577 35.7308 39.8005 36.1168 39.9256C36.4823 40.0441 37.4113 40.2314 38.181 40.3415C39.4129 40.5182 39.5806 40.6351 39.5806 41.3198C39.5806 41.9765 39.4167 42.1131 38.5269 42.1983C37.9471 42.2537 37.1441 42.2164 36.7423 42.1156Z" fill="white"/>
<path d="M54.3416 24.2693C54.8137 24.776 54.9711 25.3522 54.9574 26.5246C54.9344 28.4835 53.7715 31.7859 53.0562 31.9237C52.613 32.0089 52.5511 31.7794 52.6376 30.3723C52.6936 29.4643 52.9178 28.3301 53.1358 27.8526C53.4869 27.0839 53.4586 26.91 52.8926 26.3436C52.0675 25.5183 51.2402 25.913 50.1395 27.6572C49.3035 28.9818 48.7555 29.0201 48.7555 27.754C48.7555 25.8592 50.8813 23.5883 52.655 23.5883C53.3374 23.5883 53.9305 23.8279 54.3416 24.2693Z" fill="white"/>
<path d="M36.4213 20.8645C37.7322 22.6283 36.6256 27.3197 34.8385 27.5754C34.2087 27.6656 34.1553 27.5577 34.2212 26.3311C34.2691 25.4408 34.4992 24.8171 34.9042 24.4802C35.4351 24.0388 35.4652 23.8633 35.1349 23.1379C34.8351 22.48 34.5739 22.3241 33.9021 22.4013C33.2446 22.4772 32.7644 22.9404 31.8052 24.4242C29.8197 27.4964 28.8889 26.6282 30.7254 23.4172C32.6786 20.0032 35.0059 18.9601 36.4213 20.8645Z" fill="white"/>
<path d="M25.9327 49.0735C28.877 50.0431 34.9477 51.6178 38.0255 52.2104C39.0519 52.4079 42.4108 52.6792 45.4898 52.8132C49.3421 52.9809 51.4277 53.2043 52.1766 53.5293C54.5276 54.5494 56.7834 57.9504 57.4536 61.4855C57.8909 63.7921 57.3342 66.0854 56.0848 67.1222C55.6538 67.4803 55.5978 67.3456 55.5978 65.9485C55.5978 60.4863 52.6876 56.7369 48.4445 56.7322C43.128 56.7263 37.7602 63.5162 36.467 71.8833C36.253 73.2679 36.2932 73.2623 31.4258 72.5792C26.583 71.8995 24.3294 71.2565 23.2467 70.2448C22.3249 69.3838 22.3193 69.3573 22.3193 65.9159C22.3193 63.6973 22.1675 62.0937 21.8969 61.4522C21.6646 60.9016 20.6174 59.6626 19.5702 58.6985C17.1195 56.4426 16.8682 55.7878 17.5381 53.3996C18.4111 50.2879 20.3845 48.2152 22.5115 48.1757C22.8735 48.1692 24.413 48.5729 25.9327 49.0735Z" fill="white"/>
<path d="M48.897 62.0442C49.6689 62.3403 50.3106 63.8478 50.3106 65.364C50.3106 67.0961 49.2034 69.2432 47.8312 70.1724C46.5666 71.0288 45.6348 71.0596 44.6691 70.2775C44.0617 69.7857 43.9357 69.3962 43.9404 68.0222C43.9472 66.0518 44.6868 64.3857 46.212 62.9037C47.2807 61.8659 47.9086 61.665 48.897 62.0442Z" fill="white"/>
<path d="M10.1534 46.1823C11.199 46.9149 11.7448 48.4805 11.7448 50.7483C11.7448 54.3105 10.4012 57.1848 8.73607 57.1848C7.17945 57.1848 5.8085 54.8561 5.59328 51.8464C5.47012 50.1255 5.56529 49.5199 6.14906 48.3141C6.78508 47.0001 8.26768 45.6793 9.1096 45.6762C9.28563 45.6755 9.75526 45.9033 10.1534 46.1823Z" fill="white"/>
</svg>
